<svg xmlns="http://www.w3.org/2000/svg" viewBox="0 0 269 78"><defs/><g fill="#ffd333"><path d="M0 71L71 0l7 7L7 78z"/><path d="M71 0l70 71-7 7L64 7z"/><path d="M127 71l71-71 7 7-71 71z"/><path d="M198 0l71 71-7 7-71-71zm-12-22l-71-70 4-4 71 71z"/><path d="M257-92l-71 70-4-3 71-71z"/><path d="M320-22l-70-70 3-4 71 71z"/><path d="M391-92l-71 70-3-3 70-71z"/><path d="M455-22l-71-70 3-4 71 71z"/><path d="M525-92l-70 70-4-3 71-71z"/><path d="M589-22l-71-70 4-4 71 71z"/><path d="M660-92l-71 70-4-3 71-71z"/></g></svg>